0
SECTION
2
HEADER
0
ENDSEC
0
SECTION
2
TABLES
0
ENDSEC
0
SECTION
2
BLOCKS
0
ENDSEC
0
SECTION
2
ENTITIES
0
POLYLINE
8
R2V
62
0
66
1
70
8
0
VERTEX
8
R2V
62
0
70
32
10
3.055556
20
2.055556
30
0
0
VERTEX
8
R2V
62
0
70
32
10
3.055556
20
4.111111
30
0
0
VERTEX
8
R2V
62
0
70
32
10
3.111111
20
4.166667
30
0
0
VERTEX
8
R2V
62
0
70
32
10
3.166667
20
4.166667
30
0
0
VERTEX
8
R2V
62
0
70
32
10
3.222222
20
4.222222
30
0
0
VERTEX
8
R2V
62
0
70
32
10
3.500000
20
4.222222
30
0
0
SEQEND
0
POLYLINE
8
R2V
62
0
66
1
70
8
0
VERTEX
8
R2V
62
0
70
32
10
3.055556
20
2.055556
30
0
0
VERTEX
8
R2V
62
0
70
32
10
3.111111
20
2.055556
30
0
0
VERTEX
8
R2V
62
0
70
32
10
3.166667
20
2.000000
30
0
0
VERTEX
8
R2V
62
0
70
32
10
3.277778
20
2.000000
30
0
0
VERTEX
8
R2V
62
0
70
32
10
3.333333
20
1.944444
30
0
0
VERTEX
8
R2V
62
0
70
32
10
3.500000
20
1.944444
30
0
0
SEQEND
0
POLYLINE
8
R2V
62
0
66
1
70
8
0
VERTEX
8
R2V
62
0
70
32
10
3.055556
20
2.055556
30
0
0
VERTEX
8
R2V
62
0
70
32
10
3.000000
20
2.055556
30
0
0
VERTEX
8
R2V
62
0
70
32
10
2.944444
20
2.000000
30
0
0
VERTEX
8
R2V
62
0
70
32
10
2.833333
20
2.000000
30
0
0
VERTEX
8
R2V
62
0
70
32
10
2.777778
20
1.944444
30
0
0
VERTEX
8
R2V
62
0
70
32
10
2.611111
20
1.944444
30
0
0
SEQEND
0
POLYLINE
8
R2V
62
0
66
1
70
8
0
VERTEX
8
R2V
62
0
70
32
10
6.444444
20
2.055556
30
0
0
VERTEX
8
R2V
62
0
70
32
10
6.500000
20
4.166667
30
0
0
VERTEX
8
R2V
62
0
70
32
10
7.555556
20
4.166667
30
0
0
VERTEX
8
R2V
62
0
70
32
10
8.000000
20
3.722222
30
0
0
VERTEX
8
R2V
62
0
70
32
10
8.111111
20
3.388889
30
0
0
VERTEX
8
R2V
62
0
70
32
10
8.055556
20
2.666667
30
0
0
VERTEX
8
R2V
62
0
70
32
10
7.666667
20
2.166667
30
0
0
VERTEX
8
R2V
62
0
70
32
10
7.166667
20
1.944444
30
0
0
VERTEX
8
R2V
62
0
70
32
10
6.333333
20
2.000000
30
0
0
VERTEX
8
R2V
62
0
70
32
10
6.000000
20
1.944444
30
0
0
SEQEND
0
POLYLINE
8
R2V
62
0
66
1
70
8
0
VERTEX
8
R2V
62
0
70
32
10
6.444444
20
2.055556
30
0
0
VERTEX
8
R2V
62
0
70
32
10
6.500000
20
2.055556
30
0
0
SEQEND
0
POLYLINE
8
R2V
62
0
66
1
70
8
0
VERTEX
8
R2V
62
0
70
32
10
4.333333
20
2.111111
30
0
0
VERTEX
8
R2V
62
0
70
32
10
4.111111
20
2.500000
30
0
0
VERTEX
8
R2V
62
0
70
32
10
3.500000
20
3.111111
30
0
0
VERTEX
8
R2V
62
0
70
32
10
3.722222
20
3.500000
30
0
0
VERTEX
8
R2V
62
0
70
32
10
4.277778
20
4.166667
30
0
0
VERTEX
8
R2V
62
0
70
32
10
4.000000
20
4.222222
30
0
0
SEQEND
0
POLYLINE
8
R2V
62
0
66
1
70
8
0
VERTEX
8
R2V
62
0
70
32
10
4.333333
20
2.111111
30
0
0
VERTEX
8
R2V
62
0
70
32
10
4.388889
20
2.111111
30
0
0
VERTEX
8
R2V
62
0
70
32
10
4.444444
20
2.055556
30
0
0
VERTEX
8
R2V
62
0
70
32
10
4.611111
20
2.055556
30
0
0
VERTEX
8
R2V
62
0
70
32
10
4.666667
20
2.000000
30
0
0
VERTEX
8
R2V
62
0
70
32
10
4.944444
20
2.000000
30
0
0
VERTEX
8
R2V
62
0
70
32
10
5.000000
20
1.944444
30
0
0
SEQEND
0
POLYLINE
8
R2V
62
0
66
1
70
8
0
VERTEX
8
R2V
62
0
70
32
10
4.333333
20
2.111111
30
0
0
VERTEX
8
R2V
62
0
70
32
10
4.277778
20
2.055556
30
0
0
VERTEX
8
R2V
62
0
70
32
10
4.222222
20
2.000000
30
0
0
VERTEX
8
R2V
62
0
70
32
10
4.166667
20
2.000000
30
0
0
VERTEX
8
R2V
62
0
70
32
10
4.111111
20
1.944444
30
0
0
SEQEND
0
POLYLINE
8
R2V
62
0
66
1
70
8
0
VERTEX
8
R2V
62
0
70
32
10
3.055556
20
3.111111
30
0
0
VERTEX
8
R2V
62
0
70
32
10
3.444444
20
3.111111
30
0
0
VERTEX
8
R2V
62
0
70
32
10
3.500000
20
3.055556
30
0
0
VERTEX
8
R2V
62
0
70
32
10
3.500000
20
3.111111
30
0
0
SEQEND
0
POLYLINE
8
R2V
62
0
66
1
70
8
0
VERTEX
8
R2V
62
0
70
32
10
3.055556
20
4.111111
30
0
0
VERTEX
8
R2V
62
0
70
32
10
3.000000
20
4.111111
30
0
0
VERTEX
8
R2V
62
0
70
32
10
2.944444
20
4.166667
30
0
0
VERTEX
8
R2V
62
0
70
32
10
2.888889
20
4.222222
30
0
0
VERTEX
8
R2V
62
0
70
32
10
2.611111
20
4.222222
30
0
0
SEQEND
0
POLYLINE
8
R2V
62
0
66
1
70
8
0
VERTEX
8
R2V
62
0
70
32
10
3.055556
20
4.111111
30
0
0
VERTEX
8
R2V
62
0
70
32
10
3.000000
20
4.166667
30
0
0
SEQEND
0
POLYLINE
8
R2V
62
0
66
1
70
8
0
VERTEX
8
R2V
62
0
70
32
10
6.444444
20
4.111111
30
0
0
VERTEX
8
R2V
62
0
70
32
10
6.388889
20
4.111111
30
0
0
VERTEX
8
R2V
62
0
70
32
10
6.333333
20
4.166667
30
0
0
VERTEX
8
R2V
62
0
70
32
10
6.277778
20
4.222222
30
0
0
VERTEX
8
R2V
62
0
70
32
10
6.000000
20
4.222222
30
0
0
SEQEND
0
POLYLINE
8
R2V
62
0
66
1
70
8
0
VERTEX
8
R2V
62
0
70
32
10
6.444444
20
4.111111
30
0
0
VERTEX
8
R2V
62
0
70
32
10
6.388889
20
4.166667
30
0
0
SEQEND
0
POLYLINE
8
R2V
62
0
66
1
70
8
0
VERTEX
8
R2V
62
0
70
32
10
4.277778
20
4.166667
30
0
0
VERTEX
8
R2V
62
0
70
32
10
4.444444
20
4.166667
30
0
0
VERTEX
8
R2V
62
0
70
32
10
4.500000
20
4.222222
30
0
0
VERTEX
8
R2V
62
0
70
32
10
4.722222
20
4.222222
30
0
0
SEQEND
0
POLYLINE
8
R2V
62
0
66
1
70
8
0
VERTEX
8
R2V
62
0
70
32
10
4.277778
20
4.166667
30
0
0
VERTEX
8
R2V
62
0
70
32
10
4.222222
20
4.166667
30
0
0
SEQEND
0
POLYLINE
8
R2V
62
0
66
1
70
8
0
VERTEX
8
R2V
62
0
70
32
10
4.388889
20
0.833333
30
0
0
VERTEX
8
R2V
62
0
70
32
10
6.555556
20
0.888889
30
0
0
VERTEX
8
R2V
62
0
70
32
10
8.222222
20
1.333333
30
0
0
VERTEX
8
R2V
62
0
70
32
10
9.222222
20
1.944444
30
0
0
VERTEX
8
R2V
62
0
70
32
10
9.777778
20
2.611111
30
0
0
VERTEX
8
R2V
62
0
70
32
10
9.888889
20
3.222222
30
0
0
VERTEX
8
R2V
62
0
70
32
10
9.555556
20
3.944444
30
0
0
VERTEX
8
R2V
62
0
70
32
10
8.722222
20
4.611111
30
0
0
VERTEX
8
R2V
62
0
70
32
10
7.222222
20
5.166667
30
0
0
VERTEX
8
R2V
62
0
70
32
10
5.777778
20
5.388889
30
0
0
VERTEX
8
R2V
62
0
70
32
10
4.111111
20
5.333333
30
0
0
VERTEX
8
R2V
62
0
70
32
10
2.388889
20
4.944444
30
0
0
VERTEX
8
R2V
62
0
70
32
10
1.166667
20
4.277778
30
0
0
VERTEX
8
R2V
62
0
70
32
10
0.555556
20
3.555556
30
0
0
VERTEX
8
R2V
62
0
70
32
10
0.555556
20
2.666667
30
0
0
VERTEX
8
R2V
62
0
70
32
10
1.277778
20
1.833333
30
0
0
VERTEX
8
R2V
62
0
70
32
10
1.333333
20
1.833333
30
0
0
VERTEX
8
R2V
62
0
70
32
10
2.333333
20
1.277778
30
0
0
VERTEX
8
R2V
62
0
70
32
10
2.444444
20
1.277778
30
0
0
VERTEX
8
R2V
62
0
70
32
10
3.500000
20
0.944444
30
0
0
VERTEX
8
R2V
62
0
70
32
10
3.777778
20
0.944444
30
0
0
VERTEX
8
R2V
62
0
70
32
10
4.388889
20
0.833333
30
0
0
SEQEND
0
ENDSEC
0
EOF
