G04 #@! TF.GenerationSoftware,KiCad,Pcbnew,(5.1.5)-3*
G04 #@! TF.CreationDate,2020-05-07T08:06:12+03:00*
G04 #@! TF.ProjectId,PCB1,50434231-2e6b-4696-9361-645f70636258,rev?*
G04 #@! TF.SameCoordinates,Original*
G04 #@! TF.FileFunction,Copper,L1,Top*
G04 #@! TF.FilePolarity,Positive*
%FSLAX46Y46*%
G04 Gerber Fmt 4.6, Leading zero omitted, Abs format (unit mm)*
G04 Created by KiCad (PCBNEW (5.1.5)-3) date 2020-05-07 08:06:12*
%MOMM*%
%LPD*%
G04 APERTURE LIST*
%ADD10O,1.700000X1.700000*%
%ADD11R,1.700000X1.700000*%
%ADD12C,4.500880*%
%ADD13C,1.600000*%
%ADD14R,1.600000X1.600000*%
%ADD15C,3.000000*%
%ADD16C,0.100000*%
%ADD17C,0.800000*%
%ADD18C,0.250000*%
G04 APERTURE END LIST*
D10*
X35560000Y-58420000D03*
X35560000Y-55880000D03*
X35560000Y-53340000D03*
X35560000Y-50800000D03*
D11*
X35560000Y-48260000D03*
D12*
X36830000Y-69850000D03*
X36830000Y-36830000D03*
X97790000Y-69850000D03*
X97790000Y-36830000D03*
D10*
X88900000Y-63500000D03*
X88900000Y-60960000D03*
X88900000Y-58420000D03*
X88900000Y-55880000D03*
X88900000Y-53340000D03*
X88900000Y-50800000D03*
X88900000Y-48260000D03*
X88900000Y-45720000D03*
X88900000Y-43180000D03*
D11*
X88900000Y-40640000D03*
D10*
X53340000Y-62230000D03*
X50800000Y-62230000D03*
X48260000Y-62230000D03*
X45720000Y-62230000D03*
D11*
X43180000Y-62230000D03*
D13*
X47610000Y-46990000D03*
X50110000Y-46990000D03*
X52110000Y-46990000D03*
D14*
X54610000Y-46990000D03*
D15*
X57680000Y-44280000D03*
X44540000Y-44280000D03*
G04 #@! TA.AperFunction,SMDPad,CuDef*
D16*
G36*
X55815142Y-50101174D02*
G01*
X55838803Y-50104684D01*
X55862007Y-50110496D01*
X55884529Y-50118554D01*
X55906153Y-50128782D01*
X55926670Y-50141079D01*
X55945883Y-50155329D01*
X55963607Y-50171393D01*
X55979671Y-50189117D01*
X55993921Y-50208330D01*
X56006218Y-50228847D01*
X56016446Y-50250471D01*
X56024504Y-50272993D01*
X56030316Y-50296197D01*
X56033826Y-50319858D01*
X56035000Y-50343750D01*
X56035000Y-51256250D01*
X56033826Y-51280142D01*
X56030316Y-51303803D01*
X56024504Y-51327007D01*
X56016446Y-51349529D01*
X56006218Y-51371153D01*
X55993921Y-51391670D01*
X55979671Y-51410883D01*
X55963607Y-51428607D01*
X55945883Y-51444671D01*
X55926670Y-51458921D01*
X55906153Y-51471218D01*
X55884529Y-51481446D01*
X55862007Y-51489504D01*
X55838803Y-51495316D01*
X55815142Y-51498826D01*
X55791250Y-51500000D01*
X55303750Y-51500000D01*
X55279858Y-51498826D01*
X55256197Y-51495316D01*
X55232993Y-51489504D01*
X55210471Y-51481446D01*
X55188847Y-51471218D01*
X55168330Y-51458921D01*
X55149117Y-51444671D01*
X55131393Y-51428607D01*
X55115329Y-51410883D01*
X55101079Y-51391670D01*
X55088782Y-51371153D01*
X55078554Y-51349529D01*
X55070496Y-51327007D01*
X55064684Y-51303803D01*
X55061174Y-51280142D01*
X55060000Y-51256250D01*
X55060000Y-50343750D01*
X55061174Y-50319858D01*
X55064684Y-50296197D01*
X55070496Y-50272993D01*
X55078554Y-50250471D01*
X55088782Y-50228847D01*
X55101079Y-50208330D01*
X55115329Y-50189117D01*
X55131393Y-50171393D01*
X55149117Y-50155329D01*
X55168330Y-50141079D01*
X55188847Y-50128782D01*
X55210471Y-50118554D01*
X55232993Y-50110496D01*
X55256197Y-50104684D01*
X55279858Y-50101174D01*
X55303750Y-50100000D01*
X55791250Y-50100000D01*
X55815142Y-50101174D01*
G37*
G04 #@! TD.AperFunction*
G04 #@! TA.AperFunction,SMDPad,CuDef*
G36*
X53940142Y-50101174D02*
G01*
X53963803Y-50104684D01*
X53987007Y-50110496D01*
X54009529Y-50118554D01*
X54031153Y-50128782D01*
X54051670Y-50141079D01*
X54070883Y-50155329D01*
X54088607Y-50171393D01*
X54104671Y-50189117D01*
X54118921Y-50208330D01*
X54131218Y-50228847D01*
X54141446Y-50250471D01*
X54149504Y-50272993D01*
X54155316Y-50296197D01*
X54158826Y-50319858D01*
X54160000Y-50343750D01*
X54160000Y-51256250D01*
X54158826Y-51280142D01*
X54155316Y-51303803D01*
X54149504Y-51327007D01*
X54141446Y-51349529D01*
X54131218Y-51371153D01*
X54118921Y-51391670D01*
X54104671Y-51410883D01*
X54088607Y-51428607D01*
X54070883Y-51444671D01*
X54051670Y-51458921D01*
X54031153Y-51471218D01*
X54009529Y-51481446D01*
X53987007Y-51489504D01*
X53963803Y-51495316D01*
X53940142Y-51498826D01*
X53916250Y-51500000D01*
X53428750Y-51500000D01*
X53404858Y-51498826D01*
X53381197Y-51495316D01*
X53357993Y-51489504D01*
X53335471Y-51481446D01*
X53313847Y-51471218D01*
X53293330Y-51458921D01*
X53274117Y-51444671D01*
X53256393Y-51428607D01*
X53240329Y-51410883D01*
X53226079Y-51391670D01*
X53213782Y-51371153D01*
X53203554Y-51349529D01*
X53195496Y-51327007D01*
X53189684Y-51303803D01*
X53186174Y-51280142D01*
X53185000Y-51256250D01*
X53185000Y-50343750D01*
X53186174Y-50319858D01*
X53189684Y-50296197D01*
X53195496Y-50272993D01*
X53203554Y-50250471D01*
X53213782Y-50228847D01*
X53226079Y-50208330D01*
X53240329Y-50189117D01*
X53256393Y-50171393D01*
X53274117Y-50155329D01*
X53293330Y-50141079D01*
X53313847Y-50128782D01*
X53335471Y-50118554D01*
X53357993Y-50110496D01*
X53381197Y-50104684D01*
X53404858Y-50101174D01*
X53428750Y-50100000D01*
X53916250Y-50100000D01*
X53940142Y-50101174D01*
G37*
G04 #@! TD.AperFunction*
G04 #@! TA.AperFunction,SMDPad,CuDef*
G36*
X48860142Y-50101174D02*
G01*
X48883803Y-50104684D01*
X48907007Y-50110496D01*
X48929529Y-50118554D01*
X48951153Y-50128782D01*
X48971670Y-50141079D01*
X48990883Y-50155329D01*
X49008607Y-50171393D01*
X49024671Y-50189117D01*
X49038921Y-50208330D01*
X49051218Y-50228847D01*
X49061446Y-50250471D01*
X49069504Y-50272993D01*
X49075316Y-50296197D01*
X49078826Y-50319858D01*
X49080000Y-50343750D01*
X49080000Y-51256250D01*
X49078826Y-51280142D01*
X49075316Y-51303803D01*
X49069504Y-51327007D01*
X49061446Y-51349529D01*
X49051218Y-51371153D01*
X49038921Y-51391670D01*
X49024671Y-51410883D01*
X49008607Y-51428607D01*
X48990883Y-51444671D01*
X48971670Y-51458921D01*
X48951153Y-51471218D01*
X48929529Y-51481446D01*
X48907007Y-51489504D01*
X48883803Y-51495316D01*
X48860142Y-51498826D01*
X48836250Y-51500000D01*
X48348750Y-51500000D01*
X48324858Y-51498826D01*
X48301197Y-51495316D01*
X48277993Y-51489504D01*
X48255471Y-51481446D01*
X48233847Y-51471218D01*
X48213330Y-51458921D01*
X48194117Y-51444671D01*
X48176393Y-51428607D01*
X48160329Y-51410883D01*
X48146079Y-51391670D01*
X48133782Y-51371153D01*
X48123554Y-51349529D01*
X48115496Y-51327007D01*
X48109684Y-51303803D01*
X48106174Y-51280142D01*
X48105000Y-51256250D01*
X48105000Y-50343750D01*
X48106174Y-50319858D01*
X48109684Y-50296197D01*
X48115496Y-50272993D01*
X48123554Y-50250471D01*
X48133782Y-50228847D01*
X48146079Y-50208330D01*
X48160329Y-50189117D01*
X48176393Y-50171393D01*
X48194117Y-50155329D01*
X48213330Y-50141079D01*
X48233847Y-50128782D01*
X48255471Y-50118554D01*
X48277993Y-50110496D01*
X48301197Y-50104684D01*
X48324858Y-50101174D01*
X48348750Y-50100000D01*
X48836250Y-50100000D01*
X48860142Y-50101174D01*
G37*
G04 #@! TD.AperFunction*
G04 #@! TA.AperFunction,SMDPad,CuDef*
G36*
X50735142Y-50101174D02*
G01*
X50758803Y-50104684D01*
X50782007Y-50110496D01*
X50804529Y-50118554D01*
X50826153Y-50128782D01*
X50846670Y-50141079D01*
X50865883Y-50155329D01*
X50883607Y-50171393D01*
X50899671Y-50189117D01*
X50913921Y-50208330D01*
X50926218Y-50228847D01*
X50936446Y-50250471D01*
X50944504Y-50272993D01*
X50950316Y-50296197D01*
X50953826Y-50319858D01*
X50955000Y-50343750D01*
X50955000Y-51256250D01*
X50953826Y-51280142D01*
X50950316Y-51303803D01*
X50944504Y-51327007D01*
X50936446Y-51349529D01*
X50926218Y-51371153D01*
X50913921Y-51391670D01*
X50899671Y-51410883D01*
X50883607Y-51428607D01*
X50865883Y-51444671D01*
X50846670Y-51458921D01*
X50826153Y-51471218D01*
X50804529Y-51481446D01*
X50782007Y-51489504D01*
X50758803Y-51495316D01*
X50735142Y-51498826D01*
X50711250Y-51500000D01*
X50223750Y-51500000D01*
X50199858Y-51498826D01*
X50176197Y-51495316D01*
X50152993Y-51489504D01*
X50130471Y-51481446D01*
X50108847Y-51471218D01*
X50088330Y-51458921D01*
X50069117Y-51444671D01*
X50051393Y-51428607D01*
X50035329Y-51410883D01*
X50021079Y-51391670D01*
X50008782Y-51371153D01*
X49998554Y-51349529D01*
X49990496Y-51327007D01*
X49984684Y-51303803D01*
X49981174Y-51280142D01*
X49980000Y-51256250D01*
X49980000Y-50343750D01*
X49981174Y-50319858D01*
X49984684Y-50296197D01*
X49990496Y-50272993D01*
X49998554Y-50250471D01*
X50008782Y-50228847D01*
X50021079Y-50208330D01*
X50035329Y-50189117D01*
X50051393Y-50171393D01*
X50069117Y-50155329D01*
X50088330Y-50141079D01*
X50108847Y-50128782D01*
X50130471Y-50118554D01*
X50152993Y-50110496D01*
X50176197Y-50104684D01*
X50199858Y-50101174D01*
X50223750Y-50100000D01*
X50711250Y-50100000D01*
X50735142Y-50101174D01*
G37*
G04 #@! TD.AperFunction*
G04 #@! TA.AperFunction,SMDPad,CuDef*
G36*
X59020142Y-50101174D02*
G01*
X59043803Y-50104684D01*
X59067007Y-50110496D01*
X59089529Y-50118554D01*
X59111153Y-50128782D01*
X59131670Y-50141079D01*
X59150883Y-50155329D01*
X59168607Y-50171393D01*
X59184671Y-50189117D01*
X59198921Y-50208330D01*
X59211218Y-50228847D01*
X59221446Y-50250471D01*
X59229504Y-50272993D01*
X59235316Y-50296197D01*
X59238826Y-50319858D01*
X59240000Y-50343750D01*
X59240000Y-51256250D01*
X59238826Y-51280142D01*
X59235316Y-51303803D01*
X59229504Y-51327007D01*
X59221446Y-51349529D01*
X59211218Y-51371153D01*
X59198921Y-51391670D01*
X59184671Y-51410883D01*
X59168607Y-51428607D01*
X59150883Y-51444671D01*
X59131670Y-51458921D01*
X59111153Y-51471218D01*
X59089529Y-51481446D01*
X59067007Y-51489504D01*
X59043803Y-51495316D01*
X59020142Y-51498826D01*
X58996250Y-51500000D01*
X58508750Y-51500000D01*
X58484858Y-51498826D01*
X58461197Y-51495316D01*
X58437993Y-51489504D01*
X58415471Y-51481446D01*
X58393847Y-51471218D01*
X58373330Y-51458921D01*
X58354117Y-51444671D01*
X58336393Y-51428607D01*
X58320329Y-51410883D01*
X58306079Y-51391670D01*
X58293782Y-51371153D01*
X58283554Y-51349529D01*
X58275496Y-51327007D01*
X58269684Y-51303803D01*
X58266174Y-51280142D01*
X58265000Y-51256250D01*
X58265000Y-50343750D01*
X58266174Y-50319858D01*
X58269684Y-50296197D01*
X58275496Y-50272993D01*
X58283554Y-50250471D01*
X58293782Y-50228847D01*
X58306079Y-50208330D01*
X58320329Y-50189117D01*
X58336393Y-50171393D01*
X58354117Y-50155329D01*
X58373330Y-50141079D01*
X58393847Y-50128782D01*
X58415471Y-50118554D01*
X58437993Y-50110496D01*
X58461197Y-50104684D01*
X58484858Y-50101174D01*
X58508750Y-50100000D01*
X58996250Y-50100000D01*
X59020142Y-50101174D01*
G37*
G04 #@! TD.AperFunction*
G04 #@! TA.AperFunction,SMDPad,CuDef*
G36*
X60895142Y-50101174D02*
G01*
X60918803Y-50104684D01*
X60942007Y-50110496D01*
X60964529Y-50118554D01*
X60986153Y-50128782D01*
X61006670Y-50141079D01*
X61025883Y-50155329D01*
X61043607Y-50171393D01*
X61059671Y-50189117D01*
X61073921Y-50208330D01*
X61086218Y-50228847D01*
X61096446Y-50250471D01*
X61104504Y-50272993D01*
X61110316Y-50296197D01*
X61113826Y-50319858D01*
X61115000Y-50343750D01*
X61115000Y-51256250D01*
X61113826Y-51280142D01*
X61110316Y-51303803D01*
X61104504Y-51327007D01*
X61096446Y-51349529D01*
X61086218Y-51371153D01*
X61073921Y-51391670D01*
X61059671Y-51410883D01*
X61043607Y-51428607D01*
X61025883Y-51444671D01*
X61006670Y-51458921D01*
X60986153Y-51471218D01*
X60964529Y-51481446D01*
X60942007Y-51489504D01*
X60918803Y-51495316D01*
X60895142Y-51498826D01*
X60871250Y-51500000D01*
X60383750Y-51500000D01*
X60359858Y-51498826D01*
X60336197Y-51495316D01*
X60312993Y-51489504D01*
X60290471Y-51481446D01*
X60268847Y-51471218D01*
X60248330Y-51458921D01*
X60229117Y-51444671D01*
X60211393Y-51428607D01*
X60195329Y-51410883D01*
X60181079Y-51391670D01*
X60168782Y-51371153D01*
X60158554Y-51349529D01*
X60150496Y-51327007D01*
X60144684Y-51303803D01*
X60141174Y-51280142D01*
X60140000Y-51256250D01*
X60140000Y-50343750D01*
X60141174Y-50319858D01*
X60144684Y-50296197D01*
X60150496Y-50272993D01*
X60158554Y-50250471D01*
X60168782Y-50228847D01*
X60181079Y-50208330D01*
X60195329Y-50189117D01*
X60211393Y-50171393D01*
X60229117Y-50155329D01*
X60248330Y-50141079D01*
X60268847Y-50128782D01*
X60290471Y-50118554D01*
X60312993Y-50110496D01*
X60336197Y-50104684D01*
X60359858Y-50101174D01*
X60383750Y-50100000D01*
X60871250Y-50100000D01*
X60895142Y-50101174D01*
G37*
G04 #@! TD.AperFunction*
G04 #@! TA.AperFunction,SMDPad,CuDef*
G36*
X59020142Y-55181174D02*
G01*
X59043803Y-55184684D01*
X59067007Y-55190496D01*
X59089529Y-55198554D01*
X59111153Y-55208782D01*
X59131670Y-55221079D01*
X59150883Y-55235329D01*
X59168607Y-55251393D01*
X59184671Y-55269117D01*
X59198921Y-55288330D01*
X59211218Y-55308847D01*
X59221446Y-55330471D01*
X59229504Y-55352993D01*
X59235316Y-55376197D01*
X59238826Y-55399858D01*
X59240000Y-55423750D01*
X59240000Y-56336250D01*
X59238826Y-56360142D01*
X59235316Y-56383803D01*
X59229504Y-56407007D01*
X59221446Y-56429529D01*
X59211218Y-56451153D01*
X59198921Y-56471670D01*
X59184671Y-56490883D01*
X59168607Y-56508607D01*
X59150883Y-56524671D01*
X59131670Y-56538921D01*
X59111153Y-56551218D01*
X59089529Y-56561446D01*
X59067007Y-56569504D01*
X59043803Y-56575316D01*
X59020142Y-56578826D01*
X58996250Y-56580000D01*
X58508750Y-56580000D01*
X58484858Y-56578826D01*
X58461197Y-56575316D01*
X58437993Y-56569504D01*
X58415471Y-56561446D01*
X58393847Y-56551218D01*
X58373330Y-56538921D01*
X58354117Y-56524671D01*
X58336393Y-56508607D01*
X58320329Y-56490883D01*
X58306079Y-56471670D01*
X58293782Y-56451153D01*
X58283554Y-56429529D01*
X58275496Y-56407007D01*
X58269684Y-56383803D01*
X58266174Y-56360142D01*
X58265000Y-56336250D01*
X58265000Y-55423750D01*
X58266174Y-55399858D01*
X58269684Y-55376197D01*
X58275496Y-55352993D01*
X58283554Y-55330471D01*
X58293782Y-55308847D01*
X58306079Y-55288330D01*
X58320329Y-55269117D01*
X58336393Y-55251393D01*
X58354117Y-55235329D01*
X58373330Y-55221079D01*
X58393847Y-55208782D01*
X58415471Y-55198554D01*
X58437993Y-55190496D01*
X58461197Y-55184684D01*
X58484858Y-55181174D01*
X58508750Y-55180000D01*
X58996250Y-55180000D01*
X59020142Y-55181174D01*
G37*
G04 #@! TD.AperFunction*
G04 #@! TA.AperFunction,SMDPad,CuDef*
G36*
X60895142Y-55181174D02*
G01*
X60918803Y-55184684D01*
X60942007Y-55190496D01*
X60964529Y-55198554D01*
X60986153Y-55208782D01*
X61006670Y-55221079D01*
X61025883Y-55235329D01*
X61043607Y-55251393D01*
X61059671Y-55269117D01*
X61073921Y-55288330D01*
X61086218Y-55308847D01*
X61096446Y-55330471D01*
X61104504Y-55352993D01*
X61110316Y-55376197D01*
X61113826Y-55399858D01*
X61115000Y-55423750D01*
X61115000Y-56336250D01*
X61113826Y-56360142D01*
X61110316Y-56383803D01*
X61104504Y-56407007D01*
X61096446Y-56429529D01*
X61086218Y-56451153D01*
X61073921Y-56471670D01*
X61059671Y-56490883D01*
X61043607Y-56508607D01*
X61025883Y-56524671D01*
X61006670Y-56538921D01*
X60986153Y-56551218D01*
X60964529Y-56561446D01*
X60942007Y-56569504D01*
X60918803Y-56575316D01*
X60895142Y-56578826D01*
X60871250Y-56580000D01*
X60383750Y-56580000D01*
X60359858Y-56578826D01*
X60336197Y-56575316D01*
X60312993Y-56569504D01*
X60290471Y-56561446D01*
X60268847Y-56551218D01*
X60248330Y-56538921D01*
X60229117Y-56524671D01*
X60211393Y-56508607D01*
X60195329Y-56490883D01*
X60181079Y-56471670D01*
X60168782Y-56451153D01*
X60158554Y-56429529D01*
X60150496Y-56407007D01*
X60144684Y-56383803D01*
X60141174Y-56360142D01*
X60140000Y-56336250D01*
X60140000Y-55423750D01*
X60141174Y-55399858D01*
X60144684Y-55376197D01*
X60150496Y-55352993D01*
X60158554Y-55330471D01*
X60168782Y-55308847D01*
X60181079Y-55288330D01*
X60195329Y-55269117D01*
X60211393Y-55251393D01*
X60229117Y-55235329D01*
X60248330Y-55221079D01*
X60268847Y-55208782D01*
X60290471Y-55198554D01*
X60312993Y-55190496D01*
X60336197Y-55184684D01*
X60359858Y-55181174D01*
X60383750Y-55180000D01*
X60871250Y-55180000D01*
X60895142Y-55181174D01*
G37*
G04 #@! TD.AperFunction*
D10*
X99060000Y-63500000D03*
X99060000Y-60960000D03*
X99060000Y-58420000D03*
X99060000Y-55880000D03*
X99060000Y-53340000D03*
X99060000Y-50800000D03*
X99060000Y-48260000D03*
X99060000Y-45720000D03*
D11*
X99060000Y-43180000D03*
D10*
X91440000Y-63500000D03*
X91440000Y-60960000D03*
X91440000Y-58420000D03*
X91440000Y-55880000D03*
X91440000Y-53340000D03*
X91440000Y-50800000D03*
X91440000Y-48260000D03*
X91440000Y-45720000D03*
X91440000Y-43180000D03*
D11*
X91440000Y-40640000D03*
D10*
X66040000Y-63500000D03*
X66040000Y-60960000D03*
X66040000Y-58420000D03*
X66040000Y-55880000D03*
X66040000Y-53340000D03*
X66040000Y-50800000D03*
X66040000Y-48260000D03*
X66040000Y-45720000D03*
X66040000Y-43180000D03*
D11*
X66040000Y-40640000D03*
D10*
X63500000Y-63500000D03*
X63500000Y-60960000D03*
X63500000Y-58420000D03*
X63500000Y-55880000D03*
X63500000Y-53340000D03*
X63500000Y-50800000D03*
X63500000Y-48260000D03*
X63500000Y-45720000D03*
X63500000Y-43180000D03*
D11*
X63500000Y-40640000D03*
D17*
X74930000Y-58420000D03*
D18*
X54610000Y-49862500D02*
X55547500Y-50800000D01*
X54610000Y-46990000D02*
X54610000Y-49862500D01*
X66040000Y-45720000D02*
X64770000Y-46990000D01*
X64770000Y-46990000D02*
X54610000Y-46990000D01*
X48106973Y-50314473D02*
X48592500Y-50800000D01*
X45720000Y-47927500D02*
X48106973Y-50314473D01*
X54610000Y-45940000D02*
X53864743Y-45194743D01*
X54610000Y-46990000D02*
X54610000Y-45940000D01*
X53864743Y-45194743D02*
X46974005Y-45194743D01*
X46974005Y-45194743D02*
X45720000Y-46448748D01*
X45720000Y-46448748D02*
X45720000Y-47927500D01*
X53434999Y-59595001D02*
X73754999Y-59595001D01*
X50800000Y-62230000D02*
X53434999Y-59595001D01*
X73754999Y-59595001D02*
X74930000Y-58420000D01*
X74930000Y-58420000D02*
X74930000Y-58420000D01*
X50800000Y-64770000D02*
X49109999Y-63079999D01*
X71122820Y-64770000D02*
X50800000Y-64770000D01*
X91440000Y-53340000D02*
X90639002Y-53340000D01*
X83822820Y-52070000D02*
X71122820Y-64770000D01*
X49109999Y-63079999D02*
X48260000Y-62230000D01*
X90639002Y-53340000D02*
X89369002Y-52070000D01*
X89369002Y-52070000D02*
X83822820Y-52070000D01*
X73026410Y-62230000D02*
X54542081Y-62230000D01*
X85631411Y-49624999D02*
X73026410Y-62230000D01*
X54542081Y-62230000D02*
X53340000Y-62230000D01*
X90264999Y-49624999D02*
X85631411Y-49624999D01*
X91440000Y-50800000D02*
X90264999Y-49624999D01*
X92642081Y-48260000D02*
X91440000Y-48260000D01*
X100884199Y-59135801D02*
X100884199Y-52719198D01*
X99060000Y-60960000D02*
X100884199Y-59135801D01*
X96547080Y-52164999D02*
X92642081Y-48260000D01*
X100884199Y-52719198D02*
X100330000Y-52164999D01*
X100330000Y-52164999D02*
X96547080Y-52164999D01*
X63500000Y-55880000D02*
X60627500Y-55880000D01*
X63500000Y-50800000D02*
X60627500Y-50800000D01*
X89749999Y-57570001D02*
X88900000Y-58420000D01*
X99434003Y-57244999D02*
X90075001Y-57244999D01*
X100235001Y-56444001D02*
X99434003Y-57244999D01*
X100235001Y-54515001D02*
X100235001Y-56444001D01*
X90075001Y-57244999D02*
X89749999Y-57570001D01*
X99060000Y-53340000D02*
X100235001Y-54515001D01*
X97790000Y-59690000D02*
X88028047Y-59690000D01*
X99060000Y-58420000D02*
X97790000Y-59690000D01*
X88050001Y-56729999D02*
X88900000Y-55880000D01*
X88028047Y-59690000D02*
X87082778Y-58744731D01*
X87082778Y-58744731D02*
X87082778Y-57697222D01*
X87082778Y-57697222D02*
X88050001Y-56729999D01*
X88050001Y-54189999D02*
X88900000Y-53340000D01*
X97884999Y-62324999D02*
X88525997Y-62324999D01*
X88525997Y-62324999D02*
X86360000Y-60159002D01*
X99060000Y-63500000D02*
X97884999Y-62324999D01*
X86360000Y-60159002D02*
X86360000Y-55880000D01*
X86360000Y-55880000D02*
X88050001Y-54189999D01*
X90170000Y-52070000D02*
X88900000Y-50800000D01*
X93980000Y-52070000D02*
X90170000Y-52070000D01*
X99060000Y-55880000D02*
X97790000Y-55880000D01*
X97790000Y-55880000D02*
X93980000Y-52070000D01*
X90075001Y-47084999D02*
X89749999Y-47410001D01*
X97857919Y-48260000D02*
X96682918Y-47084999D01*
X89749999Y-47410001D02*
X88900000Y-48260000D01*
X96682918Y-47084999D02*
X90075001Y-47084999D01*
X99060000Y-48260000D02*
X97857919Y-48260000D01*
X90075001Y-44544999D02*
X89749999Y-44870001D01*
X97960000Y-43180000D02*
X96595001Y-44544999D01*
X89749999Y-44870001D02*
X88900000Y-45720000D01*
X96595001Y-44544999D02*
X90075001Y-44544999D01*
X99060000Y-43180000D02*
X97960000Y-43180000D01*
X43180000Y-61130000D02*
X43180000Y-62230000D01*
X47254999Y-57055001D02*
X43180000Y-61130000D01*
X77564999Y-57055001D02*
X47254999Y-57055001D01*
X88900000Y-45720000D02*
X77564999Y-57055001D01*
X100170001Y-41910000D02*
X90170000Y-41910000D01*
X90170000Y-41910000D02*
X88900000Y-43180000D01*
X99060000Y-50800000D02*
X101043967Y-48816033D01*
X101043967Y-42783966D02*
X100170001Y-41910000D01*
X101043967Y-48816033D02*
X101043967Y-42783966D01*
X55547500Y-55880000D02*
X50467500Y-50800000D01*
X58752500Y-55880000D02*
X55547500Y-55880000D01*
X50110000Y-50442500D02*
X50467500Y-50800000D01*
X50110000Y-46990000D02*
X50110000Y-50442500D01*
X52110000Y-49237500D02*
X53672500Y-50800000D01*
X52110000Y-46990000D02*
X52110000Y-49237500D01*
X54158027Y-51285527D02*
X53672500Y-50800000D01*
X54942500Y-52070000D02*
X54158027Y-51285527D01*
X58752500Y-50800000D02*
X57482500Y-52070000D01*
X57482500Y-52070000D02*
X54942500Y-52070000D01*
M02*
