G04 #@! TF.GenerationSoftware,KiCad,Pcbnew,(5.1.5)-3*
G04 #@! TF.CreationDate,2020-05-07T08:06:12+03:00*
G04 #@! TF.ProjectId,PCB1,50434231-2e6b-4696-9361-645f70636258,rev?*
G04 #@! TF.SameCoordinates,Original*
G04 #@! TF.FileFunction,Legend,Top*
G04 #@! TF.FilePolarity,Positive*
%FSLAX46Y46*%
G04 Gerber Fmt 4.6, Leading zero omitted, Abs format (unit mm)*
G04 Created by KiCad (PCBNEW (5.1.5)-3) date 2020-05-07 08:06:12*
%MOMM*%
%LPD*%
G04 APERTURE LIST*
%ADD10C,0.200000*%
%ADD11C,0.120000*%
%ADD12C,0.150000*%
G04 APERTURE END LIST*
D10*
X75985556Y-50292222D02*
X75985556Y-50236667D01*
X76652223Y-51347778D02*
X76596667Y-51403334D01*
X78874445Y-49236667D02*
X78818889Y-49181111D01*
X75541112Y-49236667D02*
X75485556Y-49181111D01*
X75374445Y-49125556D02*
X75096667Y-49125556D01*
X77430000Y-51347778D02*
X77485556Y-51403334D01*
X75485556Y-49236667D02*
X75430000Y-49181111D01*
X75930000Y-50236667D02*
X75985556Y-50292222D01*
X76763334Y-51292222D02*
X76707778Y-51347778D01*
X80707778Y-52014445D02*
X81707778Y-51403334D01*
X79707778Y-48181111D02*
X78263334Y-47958889D01*
X81207778Y-48736667D02*
X79707778Y-48181111D01*
X75430000Y-49181111D02*
X75374445Y-49125556D01*
X82041112Y-49403334D02*
X81207778Y-48736667D01*
X76985556Y-49125556D02*
X77207778Y-49125556D01*
X82374445Y-50125556D02*
X82041112Y-49403334D01*
X82263334Y-50736667D02*
X82374445Y-50125556D01*
X81707778Y-51403334D02*
X82263334Y-50736667D01*
X79041112Y-52458889D02*
X80707778Y-52014445D01*
X76874445Y-52514445D02*
X79041112Y-52458889D01*
X76763334Y-49181111D02*
X76707778Y-49181111D01*
X76930000Y-49181111D02*
X76985556Y-49125556D01*
X75541112Y-50236667D02*
X75930000Y-50236667D01*
X76763334Y-49181111D02*
X76930000Y-49181111D01*
X78818889Y-49181111D02*
X78763334Y-49125556D01*
X76818889Y-51236667D02*
X76763334Y-51292222D01*
X75541112Y-49236667D02*
X75485556Y-49236667D01*
X78930000Y-49236667D02*
X78874445Y-49236667D01*
X76707778Y-51347778D02*
X76652223Y-51347778D01*
X78930000Y-49236667D02*
X78874445Y-49181111D01*
X78763334Y-49125556D02*
X78485556Y-49125556D01*
X80541111Y-50681111D02*
X80152223Y-51181111D01*
X80041112Y-49181111D02*
X80485556Y-49625556D01*
X75263334Y-51403334D02*
X75096667Y-51403334D01*
X75818889Y-51403334D02*
X75985556Y-51403334D01*
X75541112Y-51292222D02*
X75485556Y-51292222D01*
X75763334Y-51347778D02*
X75818889Y-51403334D01*
X75652223Y-51347778D02*
X75763334Y-51347778D01*
X75652223Y-49181111D02*
X75707778Y-49125556D01*
X75541112Y-49236667D02*
X75596667Y-49181111D01*
X75485556Y-51292222D02*
X75430000Y-51347778D01*
X77152223Y-51347778D02*
X77430000Y-51347778D01*
X78930000Y-51292222D02*
X78985556Y-49181111D01*
X75430000Y-51347778D02*
X75318889Y-51347778D01*
X75541112Y-51292222D02*
X75541112Y-49236667D01*
X76874445Y-51236667D02*
X76930000Y-51292222D01*
X78985556Y-49181111D02*
X80041112Y-49181111D01*
X75318889Y-51347778D02*
X75263334Y-51403334D01*
X75541112Y-51292222D02*
X75596667Y-51292222D01*
X75985556Y-50236667D02*
X76207778Y-49847778D01*
X76818889Y-51236667D02*
X76874445Y-51236667D01*
X80596666Y-49958889D02*
X80541111Y-50681111D01*
X78930000Y-51292222D02*
X78985556Y-51292222D01*
X75596667Y-51292222D02*
X75652223Y-51347778D01*
X75707778Y-49125556D02*
X75985556Y-49125556D01*
X77096667Y-51292222D02*
X77152223Y-51347778D01*
X76930000Y-51292222D02*
X77096667Y-51292222D01*
X76763334Y-49181111D02*
X76485556Y-49125556D01*
X76207778Y-49847778D02*
X76763334Y-49181111D01*
X76596667Y-50847778D02*
X75985556Y-50236667D01*
X80152223Y-51181111D02*
X79652223Y-51403334D01*
X76818889Y-51236667D02*
X76596667Y-50847778D01*
X78818889Y-51347778D02*
X78485556Y-51403334D01*
X80485556Y-49625556D02*
X80596666Y-49958889D01*
X79652223Y-51403334D02*
X78818889Y-51347778D01*
X75596667Y-49181111D02*
X75652223Y-49181111D01*
X73763334Y-51514445D02*
X73818889Y-51514445D01*
X78263334Y-47958889D02*
X76596667Y-48014445D01*
X75985556Y-52403334D02*
X76263334Y-52403334D01*
X74818889Y-52070000D02*
X74930000Y-52070000D01*
X73041112Y-49792222D02*
X73041112Y-50681111D01*
X73652223Y-49070000D02*
X73041112Y-49792222D01*
X76263334Y-52403334D02*
X76874445Y-52514445D01*
X76596667Y-48014445D02*
X74874445Y-48403334D01*
X73041112Y-50681111D02*
X73763334Y-51514445D01*
X73818889Y-51514445D02*
X74818889Y-52070000D01*
X74874445Y-48403334D02*
X73652223Y-49070000D01*
X74930000Y-52070000D02*
X75985556Y-52403334D01*
D11*
X35560000Y-46930000D02*
X36890000Y-46930000D01*
X36890000Y-46930000D02*
X36890000Y-48260000D01*
X36890000Y-49530000D02*
X36890000Y-59750000D01*
X34230000Y-59750000D02*
X36890000Y-59750000D01*
X34230000Y-49530000D02*
X34230000Y-59750000D01*
X34230000Y-49530000D02*
X36890000Y-49530000D01*
X88900000Y-39310000D02*
X90230000Y-39310000D01*
X90230000Y-39310000D02*
X90230000Y-40640000D01*
X90230000Y-41910000D02*
X90230000Y-64830000D01*
X87570000Y-64830000D02*
X90230000Y-64830000D01*
X87570000Y-41910000D02*
X87570000Y-64830000D01*
X87570000Y-41910000D02*
X90230000Y-41910000D01*
X41850000Y-62230000D02*
X41850000Y-60900000D01*
X41850000Y-60900000D02*
X43180000Y-60900000D01*
X44450000Y-60900000D02*
X54670000Y-60900000D01*
X54670000Y-63560000D02*
X54670000Y-60900000D01*
X44450000Y-63560000D02*
X54670000Y-63560000D01*
X44450000Y-63560000D02*
X44450000Y-60900000D01*
X58360000Y-34000000D02*
X43860000Y-34000000D01*
X43860000Y-34000000D02*
X43860000Y-34500000D01*
X43860000Y-34500000D02*
X44860000Y-34500000D01*
X44860000Y-34500000D02*
X44860000Y-42500000D01*
X44860000Y-46000000D02*
X44860000Y-48000000D01*
X44860000Y-48000000D02*
X57360000Y-48000000D01*
X57360000Y-48000000D02*
X57360000Y-46000000D01*
X57360000Y-42500000D02*
X57360000Y-34500000D01*
X57360000Y-34500000D02*
X58360000Y-34500000D01*
X58360000Y-34500000D02*
X58360000Y-34000000D01*
X55110000Y-48250000D02*
X54110000Y-48250000D01*
X54351422Y-51510000D02*
X54868578Y-51510000D01*
X54351422Y-50090000D02*
X54868578Y-50090000D01*
X49788578Y-50090000D02*
X49271422Y-50090000D01*
X49788578Y-51510000D02*
X49271422Y-51510000D01*
X59948578Y-50090000D02*
X59431422Y-50090000D01*
X59948578Y-51510000D02*
X59431422Y-51510000D01*
X59948578Y-55170000D02*
X59431422Y-55170000D01*
X59948578Y-56590000D02*
X59431422Y-56590000D01*
X91440000Y-39310000D02*
X92770000Y-39310000D01*
X92770000Y-39310000D02*
X92770000Y-40640000D01*
X92770000Y-41910000D02*
X92770000Y-64830000D01*
X90110000Y-64830000D02*
X92770000Y-64830000D01*
X90110000Y-41910000D02*
X90110000Y-64830000D01*
X90110000Y-41910000D02*
X92770000Y-41910000D01*
X66040000Y-39310000D02*
X67370000Y-39310000D01*
X67370000Y-39310000D02*
X67370000Y-40640000D01*
X67370000Y-41910000D02*
X67370000Y-64830000D01*
X64710000Y-64830000D02*
X67370000Y-64830000D01*
X64710000Y-41910000D02*
X64710000Y-64830000D01*
X64710000Y-41910000D02*
X67370000Y-41910000D01*
X63500000Y-39310000D02*
X64830000Y-39310000D01*
X64830000Y-39310000D02*
X64830000Y-40640000D01*
X64830000Y-41910000D02*
X64830000Y-64830000D01*
X62170000Y-64830000D02*
X64830000Y-64830000D01*
X62170000Y-41910000D02*
X62170000Y-64830000D01*
X62170000Y-41910000D02*
X64830000Y-41910000D01*
D12*
X32964761Y-45894761D02*
X33107619Y-45942380D01*
X33345714Y-45942380D01*
X33440952Y-45894761D01*
X33488571Y-45847142D01*
X33536190Y-45751904D01*
X33536190Y-45656666D01*
X33488571Y-45561428D01*
X33440952Y-45513809D01*
X33345714Y-45466190D01*
X33155238Y-45418571D01*
X33060000Y-45370952D01*
X33012380Y-45323333D01*
X32964761Y-45228095D01*
X32964761Y-45132857D01*
X33012380Y-45037619D01*
X33060000Y-44990000D01*
X33155238Y-44942380D01*
X33393333Y-44942380D01*
X33536190Y-44990000D01*
X33821904Y-44942380D02*
X34393333Y-44942380D01*
X34107619Y-45942380D02*
X34107619Y-44942380D01*
X34679047Y-45656666D02*
X35155238Y-45656666D01*
X34583809Y-45942380D02*
X34917142Y-44942380D01*
X35250476Y-45942380D01*
X35583809Y-45942380D02*
X35583809Y-44942380D01*
X36155238Y-45942380D01*
X36155238Y-44942380D01*
X36631428Y-45942380D02*
X36631428Y-44942380D01*
X36869523Y-44942380D01*
X37012380Y-44990000D01*
X37107619Y-45085238D01*
X37155238Y-45180476D01*
X37202857Y-45370952D01*
X37202857Y-45513809D01*
X37155238Y-45704285D01*
X37107619Y-45799523D01*
X37012380Y-45894761D01*
X36869523Y-45942380D01*
X36631428Y-45942380D01*
X38155238Y-45942380D02*
X37583809Y-45942380D01*
X37869523Y-45942380D02*
X37869523Y-44942380D01*
X37774285Y-45085238D01*
X37679047Y-45180476D01*
X37583809Y-45228095D01*
X47561714Y-64952571D02*
X47895047Y-64952571D01*
X48037904Y-65476380D02*
X47561714Y-65476380D01*
X47561714Y-64476380D01*
X48037904Y-64476380D01*
X48466476Y-65476380D02*
X48466476Y-64476380D01*
X49037904Y-65476380D01*
X49037904Y-64476380D01*
X50085523Y-65381142D02*
X50037904Y-65428761D01*
X49895047Y-65476380D01*
X49799809Y-65476380D01*
X49656952Y-65428761D01*
X49561714Y-65333523D01*
X49514095Y-65238285D01*
X49466476Y-65047809D01*
X49466476Y-64904952D01*
X49514095Y-64714476D01*
X49561714Y-64619238D01*
X49656952Y-64524000D01*
X49799809Y-64476380D01*
X49895047Y-64476380D01*
X50037904Y-64524000D01*
X50085523Y-64571619D01*
X51037904Y-65476380D02*
X50466476Y-65476380D01*
X50752190Y-65476380D02*
X50752190Y-64476380D01*
X50656952Y-64619238D01*
X50561714Y-64714476D01*
X50466476Y-64762095D01*
X48490952Y-48702380D02*
X48490952Y-49511904D01*
X48538571Y-49607142D01*
X48586190Y-49654761D01*
X48681428Y-49702380D01*
X48871904Y-49702380D01*
X48967142Y-49654761D01*
X49014761Y-49607142D01*
X49062380Y-49511904D01*
X49062380Y-48702380D01*
X49490952Y-49654761D02*
X49633809Y-49702380D01*
X49871904Y-49702380D01*
X49967142Y-49654761D01*
X50014761Y-49607142D01*
X50062380Y-49511904D01*
X50062380Y-49416666D01*
X50014761Y-49321428D01*
X49967142Y-49273809D01*
X49871904Y-49226190D01*
X49681428Y-49178571D01*
X49586190Y-49130952D01*
X49538571Y-49083333D01*
X49490952Y-48988095D01*
X49490952Y-48892857D01*
X49538571Y-48797619D01*
X49586190Y-48750000D01*
X49681428Y-48702380D01*
X49919523Y-48702380D01*
X50062380Y-48750000D01*
X50824285Y-49178571D02*
X50967142Y-49226190D01*
X51014761Y-49273809D01*
X51062380Y-49369047D01*
X51062380Y-49511904D01*
X51014761Y-49607142D01*
X50967142Y-49654761D01*
X50871904Y-49702380D01*
X50490952Y-49702380D01*
X50490952Y-48702380D01*
X50824285Y-48702380D01*
X50919523Y-48750000D01*
X50967142Y-48797619D01*
X51014761Y-48892857D01*
X51014761Y-48988095D01*
X50967142Y-49083333D01*
X50919523Y-49130952D01*
X50824285Y-49178571D01*
X50490952Y-49178571D01*
X51252857Y-49797619D02*
X52014761Y-49797619D01*
X52252857Y-49702380D02*
X52252857Y-48702380D01*
X52824285Y-49702380D02*
X52395714Y-49130952D01*
X52824285Y-48702380D02*
X52252857Y-49273809D01*
X53776666Y-49702380D02*
X53205238Y-49702380D01*
X53490952Y-49702380D02*
X53490952Y-48702380D01*
X53395714Y-48845238D01*
X53300476Y-48940476D01*
X53205238Y-48988095D01*
X54189333Y-52776380D02*
X53856000Y-52300190D01*
X53617904Y-52776380D02*
X53617904Y-51776380D01*
X53998857Y-51776380D01*
X54094095Y-51824000D01*
X54141714Y-51871619D01*
X54189333Y-51966857D01*
X54189333Y-52109714D01*
X54141714Y-52204952D01*
X54094095Y-52252571D01*
X53998857Y-52300190D01*
X53617904Y-52300190D01*
X55046476Y-52109714D02*
X55046476Y-52776380D01*
X54808380Y-51728761D02*
X54570285Y-52443047D01*
X55189333Y-52443047D01*
X49363333Y-52902380D02*
X49030000Y-52426190D01*
X48791904Y-52902380D02*
X48791904Y-51902380D01*
X49172857Y-51902380D01*
X49268095Y-51950000D01*
X49315714Y-51997619D01*
X49363333Y-52092857D01*
X49363333Y-52235714D01*
X49315714Y-52330952D01*
X49268095Y-52378571D01*
X49172857Y-52426190D01*
X48791904Y-52426190D01*
X49696666Y-51902380D02*
X50315714Y-51902380D01*
X49982380Y-52283333D01*
X50125238Y-52283333D01*
X50220476Y-52330952D01*
X50268095Y-52378571D01*
X50315714Y-52473809D01*
X50315714Y-52711904D01*
X50268095Y-52807142D01*
X50220476Y-52854761D01*
X50125238Y-52902380D01*
X49839523Y-52902380D01*
X49744285Y-52854761D01*
X49696666Y-52807142D01*
X59523333Y-52902380D02*
X59190000Y-52426190D01*
X58951904Y-52902380D02*
X58951904Y-51902380D01*
X59332857Y-51902380D01*
X59428095Y-51950000D01*
X59475714Y-51997619D01*
X59523333Y-52092857D01*
X59523333Y-52235714D01*
X59475714Y-52330952D01*
X59428095Y-52378571D01*
X59332857Y-52426190D01*
X58951904Y-52426190D01*
X59904285Y-51997619D02*
X59951904Y-51950000D01*
X60047142Y-51902380D01*
X60285238Y-51902380D01*
X60380476Y-51950000D01*
X60428095Y-51997619D01*
X60475714Y-52092857D01*
X60475714Y-52188095D01*
X60428095Y-52330952D01*
X59856666Y-52902380D01*
X60475714Y-52902380D01*
X59523333Y-57982380D02*
X59190000Y-57506190D01*
X58951904Y-57982380D02*
X58951904Y-56982380D01*
X59332857Y-56982380D01*
X59428095Y-57030000D01*
X59475714Y-57077619D01*
X59523333Y-57172857D01*
X59523333Y-57315714D01*
X59475714Y-57410952D01*
X59428095Y-57458571D01*
X59332857Y-57506190D01*
X58951904Y-57506190D01*
X60475714Y-57982380D02*
X59904285Y-57982380D01*
X60190000Y-57982380D02*
X60190000Y-56982380D01*
X60094761Y-57125238D01*
X59999523Y-57220476D01*
X59904285Y-57268095D01*
M02*
