M48
; DRILL file {KiCad (5.1.5)-3} date 05/07/20 08:06:22
; FORMAT={-:-/ absolute / metric / decimal}
; #@! TF.CreationDate,2020-05-07T08:06:22+03:00
; #@! TF.GenerationSoftware,Kicad,Pcbnew,(5.1.5)-3
FMAT,2
METRIC
T1C0.400
T2C0.920
T3C1.000
T4C1.999
T5C2.300
%
G90
G05
T1
X74.93Y-58.42
T2
X47.61Y-46.99
X50.11Y-46.99
X52.11Y-46.99
X54.61Y-46.99
T3
X88.9Y-40.64
X88.9Y-43.18
X88.9Y-45.72
X88.9Y-48.26
X88.9Y-50.8
X88.9Y-53.34
X88.9Y-55.88
X88.9Y-58.42
X88.9Y-60.96
X88.9Y-63.5
X66.04Y-40.64
X66.04Y-43.18
X66.04Y-45.72
X66.04Y-48.26
X66.04Y-50.8
X66.04Y-53.34
X66.04Y-55.88
X66.04Y-58.42
X66.04Y-60.96
X66.04Y-63.5
X35.56Y-48.26
X35.56Y-50.8
X35.56Y-53.34
X35.56Y-55.88
X35.56Y-58.42
X99.06Y-43.18
X99.06Y-45.72
X99.06Y-48.26
X99.06Y-50.8
X99.06Y-53.34
X99.06Y-55.88
X99.06Y-58.42
X99.06Y-60.96
X99.06Y-63.5
X43.18Y-62.23
X45.72Y-62.23
X48.26Y-62.23
X50.8Y-62.23
X53.34Y-62.23
X63.5Y-40.64
X63.5Y-43.18
X63.5Y-45.72
X63.5Y-48.26
X63.5Y-50.8
X63.5Y-53.34
X63.5Y-55.88
X63.5Y-58.42
X63.5Y-60.96
X63.5Y-63.5
X91.44Y-40.64
X91.44Y-43.18
X91.44Y-45.72
X91.44Y-48.26
X91.44Y-50.8
X91.44Y-53.34
X91.44Y-55.88
X91.44Y-58.42
X91.44Y-60.96
X91.44Y-63.5
T4
X36.83Y-36.83
X36.83Y-69.85
X97.79Y-69.85
X97.79Y-36.83
T5
X44.54Y-44.28
X57.68Y-44.28
T0
M30
